# This file uses centimeters as units for non-parametric coordinates.

mtllib block002.mtl
g default
v -0.241338 0.000000 0.500000
v 0.241338 0.000000 0.500000
v -0.241338 0.330875 0.500000
v 0.241338 0.330875 0.500000
v -0.241338 0.330875 -0.404592
v 0.241338 0.330875 -0.404592
v -0.241338 0.000000 -0.404592
v 0.241338 0.000000 -0.404592
vt 0.801237 0.888987
vt 0.801237 0.764265
vt 0.886734 0.764265
vt 0.886734 0.888987
vt 0.550416 0.655808
vt 0.675138 0.655808
vt 0.675138 0.889551
vt 0.550416 0.889551
vt 0.709726 0.888987
vt 0.709726 0.764265
vt 0.795223 0.764265
vt 0.795223 0.888987
vt 0.682231 0.526610
vt 0.806952 0.526610
vt 0.806952 0.760353
vt 0.682231 0.760353
vt 0.814045 0.760353
vt 0.814045 0.526609
vt 0.899542 0.526609
vt 0.899542 0.760353
vt 0.892747 0.998008
vt 0.892747 0.764265
vt 0.978244 0.764265
vt 0.978244 0.998008
vn 0.000000 0.000000 1.000000
vn 0.000000 0.000000 1.000000
vn 0.000000 0.000000 1.000000
vn 0.000000 0.000000 1.000000
vn 0.000000 1.000000 0.000000
vn 0.000000 1.000000 0.000000
vn 0.000000 1.000000 0.000000
vn 0.000000 1.000000 0.000000
vn 0.000000 0.000000 -1.000000
vn 0.000000 0.000000 -1.000000
vn 0.000000 0.000000 -1.000000
vn 0.000000 0.000000 -1.000000
vn 0.000000 -1.000000 0.000000
vn 0.000000 -1.000000 0.000000
vn 0.000000 -1.000000 0.000000
vn 0.000000 -1.000000 0.000000
vn 1.000000 0.000000 0.000000
vn 1.000000 0.000000 0.000000
vn 1.000000 0.000000 0.000000
vn 1.000000 0.000000 0.000000
vn -1.000000 0.000000 0.000000
vn -1.000000 0.000000 0.000000
vn -1.000000 0.000000 0.000000
vn -1.000000 0.000000 0.000000
s off
g Block_HVL
usemtl initialShadingGroup
f 1/1/1 2/2/2 4/3/3 3/4/4
f 3/5/5 4/6/6 6/7/7 5/8/8
f 5/9/9 6/10/10 8/11/11 7/12/12
f 7/13/13 8/14/14 2/15/15 1/16/16
f 2/17/17 8/18/18 6/19/19 4/20/20
f 7/21/21 1/22/22 3/23/23 5/24/24
