# This file uses centimeters as units for non-parametric coordinates.

mtllib ChileLP.mtl
g default
v -0.473042 0.502521 -0.410570
v -0.257834 0.235741 -0.409913
v -0.533888 0.012547 -0.441620
v -0.749539 0.278968 -0.442328
v -0.976643 0.095350 -0.237042
v -0.760630 -0.170778 -0.236663
v -0.785286 -0.190713 0.118332
v -1.001339 0.075384 0.118522
v -0.841705 0.204450 0.410571
v -0.625907 -0.061852 0.409914
v -0.349852 0.161343 0.441621
v -0.565207 0.428004 0.442328
v -0.338102 0.611622 0.237044
v -0.123110 0.344668 0.236664
v -0.098454 0.364603 -0.118331
v -0.313406 0.631589 -0.118521
v -0.666789 0.605572 -0.260988
v -0.565313 0.687618 -0.075340
v -0.842550 0.463466 -0.281176
v -0.986916 0.346744 -0.150681
v -1.002614 0.334052 0.075342
v -0.901138 0.416097 0.260990
v -0.725376 0.558204 0.281177
v -0.581011 0.674925 0.150683
v -0.786462 0.627925 -0.118443
v -0.740410 0.665159 -0.034191
v -0.866228 0.563433 -0.127605
v -0.931744 0.510461 -0.068383
v -0.938869 0.504701 0.034192
v -0.892816 0.541935 0.118444
v -0.813051 0.606428 0.127606
v -0.747534 0.659399 0.068384
v -1.366379 0.641728 0.001028
v -1.330719 0.705747 -0.022884
v -1.359325 0.639428 0.000001
v -1.360186 0.640247 -0.007395
v -1.310111 0.690851 -0.003180
v -1.351995 0.638287 -0.001027
v -1.325690 0.702112 0.022885
v -1.358188 0.639769 0.007395
v -1.346298 0.717008 0.003180
v 0.093008 0.031298 -0.096069
v -0.017848 -0.092782 -0.332793
v -0.209856 -0.307693 -0.358535
v -0.367565 -0.484216 -0.192138
v -0.384714 -0.503411 0.096070
v -0.273859 -0.379331 0.332794
v -0.081850 -0.164419 0.358536
v 0.075858 0.012102 0.192139
v 0.157038 -0.272933 -0.289651
v 0.003525 -0.470751 -0.312056
v -0.122566 -0.633233 -0.167230
v -0.136277 -0.650901 0.083616
v -0.047646 -0.536691 0.289653
v 0.105867 -0.338872 0.312057
v 0.231957 -0.176390 0.167231
v 0.245669 -0.158721 -0.083615
v 0.358440 -0.416478 -0.256358
v 0.244002 -0.606254 -0.276188
v 0.150006 -0.762129 -0.148008
v 0.139785 -0.779079 0.074005
v 0.205856 -0.669513 0.256360
v 0.320294 -0.479736 0.276188
v 0.414290 -0.323860 0.148010
v 0.424511 -0.306910 -0.074004
v 0.585294 -0.529850 -0.208590
v 0.517611 -0.696312 -0.224725
v 0.462019 -0.833038 -0.120429
v 0.455974 -0.847906 0.060215
v 0.495051 -0.751799 0.208591
v 0.562733 -0.585337 0.224725
v 0.618325 -0.448612 0.120430
v 0.624370 -0.433744 -0.060214
v 0.818424 -0.599340 -0.153583
v 0.795419 -0.729435 -0.165463
v 0.776523 -0.836291 -0.088671
v 0.774468 -0.847910 0.044337
v 0.787751 -0.772801 0.153585
v 0.810755 -0.642705 0.165464
v 0.829651 -0.535851 0.088673
v 0.831706 -0.524231 -0.044335
v 1.027720 -0.629770 -0.100748
v 1.033783 -0.716054 -0.108541
v 1.038762 -0.786925 -0.058167
v 1.039304 -0.794632 0.029084
v 1.035804 -0.744816 0.100750
v 1.029741 -0.658531 0.108543
v 1.024762 -0.587661 0.058168
v 1.024220 -0.579954 -0.029083
v 1.116279 -0.630588 -0.079397
v 1.130744 -0.696845 -0.085539
v 1.142624 -0.751266 -0.045840
v 1.143916 -0.757183 0.022921
v 1.135565 -0.718931 0.079399
v 1.121101 -0.652673 0.085540
v 1.109221 -0.598253 0.045841
v 1.107929 -0.592335 -0.022920
v 1.276978 -0.632719 -0.046733
v 1.292692 -0.654867 0.018966
v 1.255513 -0.602463 0.046734
v 1.239799 -0.580315 -0.018965
v 1.315557 -0.596281 -0.038118
v 1.331805 -0.611630 0.015470
v 1.293362 -0.575313 0.038119
v 1.277114 -0.559963 -0.015469
v 1.344164 -0.547543 -0.029316
v 1.348118 -0.478577 -0.015890
v 1.359084 -0.555768 0.011898
v 1.357445 -0.480049 0.006450
v 1.323782 -0.536310 0.029317
v 1.335378 -0.476564 0.015892
v 1.308862 -0.528085 -0.011897
v 1.326051 -0.475092 -0.006448
v 1.338500 -0.452882 -0.006058
v 1.342055 -0.453444 0.002459
v 1.333643 -0.452115 0.006058
v 1.330087 -0.451554 -0.002458
v 1.336072 -0.452499 0.000001
v -0.876974 0.758445 0.009575
v -0.920358 0.719125 -0.068904
v -0.977748 0.667113 -0.009575
v -0.934363 0.706433 0.068904
v -0.951370 0.817189 0.008636
v -1.031833 0.859983 0.008350
v -0.981974 0.775476 -0.062140
v -1.051228 0.813548 -0.060082
v -1.022456 0.720298 -0.008635
v -1.076883 0.752124 -0.008349
v -0.991852 0.762012 0.062141
v -1.057488 0.798560 0.060083
v -1.119471 0.870117 0.007491
v -1.199487 0.857603 0.006491
v -1.127245 0.825665 -0.053907
v -1.196849 0.818572 -0.046702
v -1.137527 0.766864 -0.007491
v -1.193358 0.766941 -0.006489
v -1.129754 0.811317 0.053908
v -1.195997 0.805973 0.046704
v -1.257086 0.832452 0.005775
v -1.297598 0.798135 0.005081
v -1.246863 0.799014 -0.041557
v -1.282765 0.771181 -0.036558
v -1.233340 0.754782 -0.005775
v -1.263144 0.735526 -0.005080
v -1.243563 0.788220 0.041557
v -1.277977 0.762481 0.036558
vt 0.865809 0.452796
vt 0.946853 0.500008
vt 0.861583 0.589604
vt 0.801189 0.518892
vt 0.716425 0.560204
vt 0.758204 0.651508
vt 0.650851 0.574059
vt 0.688399 0.672851
vt 0.683714 0.106319
vt 0.722193 0.013089
vt 0.775478 0.137554
vt 0.829992 0.055625
vt 0.920225 0.140997
vt 0.846516 0.196452
vt 0.890970 0.276467
vt 0.982808 0.250704
vt 0.990353 0.379677
vt 0.894519 0.366755
vt 0.800933 0.414646
vt 0.820801 0.356921
vt 0.756920 0.458625
vt 0.698620 0.484279
vt 0.654165 0.484442
vt 0.676394 0.189101
vt 0.739583 0.203128
vt 0.787742 0.242871
vt 0.817920 0.296234
vt 0.755356 0.384687
vt 0.768257 0.349158
vt 0.729388 0.411290
vt 0.697391 0.425749
vt 0.676146 0.424268
vt 0.686662 0.248440
vt 0.719358 0.255120
vt 0.747375 0.279041
vt 0.766006 0.311774
vt 0.446336 0.210041
vt 0.466344 0.197172
vt 0.004307 0.004308
vt 0.003446 0.002268
vt 0.449948 0.212168
vt 0.006347 0.003446
vt 0.472600 0.205439
vt 0.452589 0.214680
vt 0.439804 0.207289
vt 0.437827 0.185337
vt 0.005169 0.006347
vt 0.446294 0.186176
vt 0.442681 0.208023
vt 0.002268 0.005169
vt 0.456974 0.190363
vt 0.002408 0.458732
vt 0.124886 0.455642
vt 0.001953 0.561541
vt 0.129853 0.547932
vt 0.007232 0.668521
vt 0.145101 0.638520
vt 0.026806 0.777134
vt 0.170448 0.726327
vt 0.052624 0.847584
vt 0.194130 0.782640
vt 0.039738 0.037218
vt 0.182308 0.095157
vt 0.010903 0.144927
vt 0.151811 0.181292
vt 0.002758 0.252685
vt 0.134121 0.271293
vt 0.002533 0.356983
vt 0.125416 0.363151
vt 0.209793 0.535749
vt 0.224032 0.616636
vt 0.247888 0.694038
vt 0.270071 0.742468
vt 0.258991 0.131392
vt 0.230347 0.206534
vt 0.213753 0.286668
vt 0.205857 0.369228
vt 0.205417 0.452606
vt 0.288157 0.520556
vt 0.302360 0.589939
vt 0.325845 0.656368
vt 0.347822 0.698002
vt 0.336839 0.172460
vt 0.308601 0.237006
vt 0.292137 0.305735
vt 0.284050 0.376696
vt 0.283467 0.448877
vt 0.368544 0.501454
vt 0.382185 0.556869
vt 0.404343 0.609683
vt 0.424934 0.642166
vt 0.414641 0.223718
vt 0.388113 0.274662
vt 0.372401 0.329533
vt 0.364397 0.386268
vt 0.363761 0.444094
vt 0.445646 0.480253
vt 0.458197 0.520095
vt 0.477199 0.557713
vt 0.494001 0.580545
vt 0.485601 0.280513
vt 0.463460 0.316577
vt 0.449291 0.355952
vt 0.441438 0.396913
vt 0.440764 0.438774
vt 0.513647 0.461742
vt 0.523360 0.487485
vt 0.536870 0.511508
vt 0.548142 0.526184
vt 0.542507 0.330795
vt 0.527259 0.353854
vt 0.516554 0.379180
vt 0.509994 0.406089
vt 0.509314 0.434187
vt 0.542825 0.454504
vt 0.550340 0.475078
vt 0.560842 0.494268
vt 0.569591 0.506038
vt 0.565216 0.349488
vt 0.553359 0.367936
vt 0.545074 0.388164
vt 0.539994 0.409756
vt 0.539514 0.432353
vt 0.594293 0.457188
vt 0.605896 0.473513
vt 0.601843 0.381443
vt 0.588424 0.404546
vt 0.585066 0.431760
vt 0.607617 0.450943
vt 0.617517 0.463926
vt 0.614044 0.389896
vt 0.602704 0.408521
vt 0.599913 0.430370
vt 0.621009 0.443784
vt 0.635988 0.433055
vt 0.629249 0.452892
vt 0.641524 0.436387
vt 0.626315 0.399655
vt 0.639542 0.414236
vt 0.617163 0.412911
vt 0.633519 0.419614
vt 0.615075 0.428896
vt 0.632317 0.426593
vt 0.640243 0.426946
vt 0.642536 0.427240
vt 0.641714 0.422415
vt 0.639245 0.423395
vt 0.638788 0.425315
vt 0.641046 0.424820
vt 0.563123 0.029494
vt 0.587443 0.048650
vt 0.526894 0.064843
vt 0.606722 0.072250
vt 0.556643 0.089745
vt 0.620637 0.099516
vt 0.624308 0.120328
vt 0.573983 0.119805
vt 0.445814 0.007793
vt 0.461446 0.054747
vt 0.476184 0.001953
vt 0.506425 0.005454
vt 0.489726 0.054008
vt 0.535843 0.014394
vt 0.514468 0.087461
vt 0.503209 0.107595
vt 0.539850 0.107270
vt 0.525643 0.124824
vt 0.556984 0.131447
vt 0.542305 0.146005
vt 0.459840 0.075286
vt 0.454549 0.095272
vt 0.484059 0.077087
vt 0.476595 0.098128
vt 0.492363 0.126786
vt 0.482631 0.144143
vt 0.512590 0.142478
vt 0.500268 0.158069
vt 0.527229 0.161570
vt 0.512652 0.175101
vt 0.448583 0.116103
vt 0.444132 0.135488
vt 0.468272 0.118432
vt 0.461403 0.137075
vt 0.475235 0.157393
vt 0.468950 0.168622
vt 0.490642 0.169777
vt 0.482416 0.179686
vt 0.501151 0.185113
vt 0.491026 0.193257
vt 0.441194 0.150450
vt 0.439189 0.163290
vt 0.456486 0.151412
vt 0.452433 0.163649
vn 0.230369 0.487934 -0.841933
vn 0.583647 0.772010 -0.251707
vn 0.799883 0.540816 -0.260202
vn 0.439343 0.232108 -0.867815
vn -0.342973 0.023778 -0.939044
vn -0.137914 -0.254436 -0.957205
vn -0.802545 -0.346186 -0.485877
vn -0.588403 -0.643882 -0.489079
vn -0.877654 -0.407970 0.251563
vn -0.662911 -0.704406 0.253695
vn -0.525865 -0.122756 0.841663
vn -0.318693 -0.412890 0.853204
vn 0.048582 0.339952 0.939187
vn 0.254574 0.079861 0.963750
vn 0.507292 0.711558 0.486148
vn 0.723538 0.472057 0.503642
vn -0.164123 0.769313 -0.617431
vn 0.107891 0.976404 -0.187067
vn -0.581853 0.423100 -0.694574
vn -0.920948 0.161796 -0.354510
vn -0.976877 0.106190 0.185567
vn -0.718977 0.323930 0.614932
vn -0.291200 0.656266 0.696073
vn 0.040108 0.933240 0.357009
vn -0.229282 0.825838 -0.515191
vn -0.006287 0.978510 -0.206104
vn -0.649701 0.485071 -0.585316
vn -0.891418 0.316341 -0.324505
vn -0.947844 0.255998 0.189888
vn -0.763953 0.414262 0.494736
vn -0.333837 0.727643 0.599241
vn -0.088929 0.933452 0.347503
vn -0.337251 -0.081598 -0.937872
vn -0.965582 0.235009 0.111453
vn -0.895191 0.431474 0.111643
vn -0.318172 0.012566 -0.947950
vn -0.232678 -0.972554 -0.000007
vn 0.768379 -0.623264 -0.145380
vn 0.709346 -0.690196 -0.143034
vn -0.088647 -0.205376 0.974660
vn -0.084272 -0.152519 0.984701
vn 0.817359 0.513576 -0.261081
vn 0.471000 0.177308 -0.864130
vn -0.072559 -0.329977 -0.941196
vn -0.485120 -0.734209 -0.474969
vn -0.555064 -0.794283 0.247019
vn -0.239072 -0.497783 0.833701
vn 0.295079 0.020657 0.955249
vn 0.745231 0.434940 0.505428
vn 0.701847 0.661498 -0.264258
vn 0.412533 0.267080 -0.870910
vn -0.042322 -0.325521 -0.944587
vn -0.386215 -0.789777 -0.476540
vn -0.445310 -0.860459 0.247608
vn -0.180231 -0.517263 0.836634
vn 0.264281 0.081332 0.961010
vn 0.642351 0.571112 0.511094
vn 0.579815 0.769836 -0.266770
vn 0.358304 0.322687 -0.876066
vn 0.004809 -0.338174 -0.941071
vn -0.261897 -0.842776 -0.470254
vn -0.307764 -0.919551 0.244350
vn -0.102098 -0.548090 0.830165
vn 0.242689 0.113572 0.963433
vn 0.535800 0.668104 0.516290
vn 0.475400 0.838715 -0.265616
vn 0.337001 0.357545 -0.870972
vn 0.100038 -0.351098 -0.930979
vn -0.076015 -0.883776 -0.461694
vn -0.108885 -0.964715 0.239728
vn 0.031375 -0.573462 0.818631
vn 0.257578 0.132416 0.957141
vn 0.451664 0.729367 0.513833
vn 0.357499 0.896647 -0.261189
vn 0.302180 0.407620 -0.861704
vn 0.185773 -0.329652 -0.925645
vn 0.102753 -0.882827 -0.458322
vn 0.083164 -0.967737 0.237844
vn 0.156174 -0.559888 0.813717
vn 0.260463 0.173228 0.949816
vn 0.353350 0.787187 0.505451
vn 0.255767 0.931845 -0.257388
vn 0.261280 0.449692 -0.854113
vn 0.244668 -0.293177 -0.924221
vn 0.244692 -0.854323 -0.458539
vn 0.236984 -0.941894 0.238062
vn 0.249326 -0.525726 0.813295
vn 0.249864 0.214130 0.944308
vn 0.265029 0.825379 0.498508
vn 0.059353 0.986138 -0.154950
vn 0.173671 0.476334 -0.861942
vn 0.290914 -0.124430 -0.948623
vn 0.461451 -0.777761 -0.426792
vn 0.479196 -0.868698 0.125443
vn 0.366239 -0.412772 0.833960
vn 0.254655 0.164102 0.953007
vn 0.078307 0.885869 0.457280
vn -0.004787 0.885369 -0.464865
vn 0.532984 -0.354613 -0.768230
vn 0.670219 -0.662028 0.335449
vn 0.206144 0.405221 0.890674
vn 0.479282 -0.217671 -0.850240
vn -0.513871 0.749949 -0.416549
vn -0.736731 0.518825 -0.433645
vn 0.558064 -0.037051 -0.828970
vn 0.791044 -0.524509 0.314865
vn 0.927164 -0.222408 0.301499
vn -0.049845 0.299946 0.952653
vn -0.107179 0.263419 0.958709
vn -0.870201 0.305868 -0.386257
vn 0.502661 0.178406 -0.845875
vn 0.943449 0.116455 0.310391
vn -0.257864 0.261021 0.930255
vn -0.916698 0.247226 -0.313918
vn 0.303364 0.457898 -0.835643
vn 0.788919 0.524459 0.320234
vn -0.433855 0.336678 0.835714
vn 0.156012 0.987755 -0.000012
vn -0.124920 0.461345 -0.878383
vn 0.436601 0.890926 0.125021
vn -0.971886 -0.190975 -0.137722
vn -0.339183 0.297518 0.892434
vn 0.548225 0.828231 0.116117
vn 0.117926 0.259989 -0.958384
vn 0.056060 0.296882 -0.953267
vn 0.303649 0.946086 0.112777
vn -0.643074 -0.749997 -0.154789
vn -0.378669 -0.912142 -0.156867
vn -0.048008 0.039856 0.998051
vn -0.040038 0.037623 0.998490
vn -0.008777 0.993430 0.114108
vn -0.069817 0.287840 -0.955130
vn -0.148208 0.266636 -0.952334
vn -0.260792 0.958762 0.112971
vn -0.135583 -0.978927 -0.152706
vn 0.108718 -0.982172 -0.153360
vn -0.088875 0.009626 0.995996
vn -0.097724 -0.007534 0.995185
vn -0.513090 0.851093 0.111265
vn -0.220986 0.223899 -0.949228
vn -0.332492 0.134810 -0.933421
vn -0.771490 0.627470 0.105281
vn 0.388440 -0.908547 -0.153806
vn 0.618061 -0.770806 -0.154467
vn -0.095521 -0.026082 0.995086
vn -0.136290 -0.066193 0.988455
s 1
g ChileLP1
usemtl ChileLP:initialShadingGroup_001
f 1/1/1 16/18/2 15/17/3 2/2/4
f 4/4/5 1/1/1 2/2/4 3/3/6
f 5/5/7 4/4/5 3/3/6 6/6/8
f 8/7/9 5/5/7 6/6/8 7/8/10
f 9/11/11 8/9/9 7/10/10 10/12/12
f 12/14/13 9/11/11 10/12/12 11/13/14
f 13/15/15 12/14/13 11/13/14 14/16/16
f 16/18/2 13/15/15 14/16/16 15/17/3
f 16/18/2 1/1/1 17/19/17 18/20/18
f 17/19/17 1/1/1 4/4/5 19/21/19
f 19/21/19 4/4/5 5/5/7 20/22/20
f 20/22/20 5/5/7 8/7/9 21/23/21
f 21/24/21 8/9/9 9/11/11 22/25/22
f 22/25/22 9/11/11 12/14/13 23/26/23
f 23/26/23 12/14/13 13/15/15 24/27/24
f 24/27/24 13/15/15 16/18/2 18/20/18
f 18/20/18 17/19/17 25/28/25 26/29/26
f 25/28/25 17/19/17 19/21/19 27/30/27
f 27/30/27 19/21/19 20/22/20 28/31/28
f 28/31/28 20/22/20 21/23/21 29/32/29
f 29/33/29 21/24/21 22/25/22 30/34/30
f 30/34/30 22/25/22 23/26/23 31/35/31
f 31/35/31 23/26/23 24/27/24 32/36/32
f 32/36/32 24/27/24 18/20/18 26/29/26
f 36/41/33 33/37/34 41/51/35 34/38/36
f 35/39/37 33/40/34 36/42/33
f 38/44/38 36/41/33 34/38/36 37/43/39
f 35/39/37 36/42/33 38/47/38
f 40/49/40 38/45/38 37/46/39 39/48/41
f 35/39/37 38/47/38 40/50/40
f 33/37/34 40/49/40 39/48/41 41/51/35
f 35/39/37 40/50/40 33/40/34
f 2/54/4 15/52/3 42/53/42 43/55/43
f 3/56/6 2/54/4 43/55/43 44/57/44
f 6/58/8 3/56/6 44/57/44 45/59/45
f 7/60/10 6/58/8 45/59/45 46/61/46
f 10/64/12 7/62/10 46/63/46 47/65/47
f 11/66/14 10/64/12 47/65/47 48/67/48
f 14/68/16 11/66/14 48/67/48 49/69/49
f 15/52/3 14/68/16 49/69/49 42/53/42
f 43/55/43 42/53/42 57/78/50 50/70/51
f 44/57/44 43/55/43 50/70/51 51/71/52
f 45/59/45 44/57/44 51/71/52 52/72/53
f 46/61/46 45/59/45 52/72/53 53/73/54
f 47/65/47 46/63/46 53/74/54 54/75/55
f 48/67/48 47/65/47 54/75/55 55/76/56
f 49/69/49 48/67/48 55/76/56 56/77/57
f 42/53/42 49/69/49 56/77/57 57/78/50
f 50/70/51 57/78/50 65/87/58 58/79/59
f 51/71/52 50/70/51 58/79/59 59/80/60
f 52/72/53 51/71/52 59/80/60 60/81/61
f 53/73/54 52/72/53 60/81/61 61/82/62
f 54/75/55 53/74/54 61/83/62 62/84/63
f 55/76/56 54/75/55 62/84/63 63/85/64
f 56/77/57 55/76/56 63/85/64 64/86/65
f 57/78/50 56/77/57 64/86/65 65/87/58
f 58/79/59 65/87/58 73/96/66 66/88/67
f 59/80/60 58/79/59 66/88/67 67/89/68
f 60/81/61 59/80/60 67/89/68 68/90/69
f 61/82/62 60/81/61 68/90/69 69/91/70
f 62/84/63 61/83/62 69/92/70 70/93/71
f 63/85/64 62/84/63 70/93/71 71/94/72
f 64/86/65 63/85/64 71/94/72 72/95/73
f 65/87/58 64/86/65 72/95/73 73/96/66
f 66/88/67 73/96/66 81/105/74 74/97/75
f 67/89/68 66/88/67 74/97/75 75/98/76
f 68/90/69 67/89/68 75/98/76 76/99/77
f 69/91/70 68/90/69 76/99/77 77/100/78
f 70/93/71 69/92/70 77/101/78 78/102/79
f 71/94/72 70/93/71 78/102/79 79/103/80
f 72/95/73 71/94/72 79/103/80 80/104/81
f 73/96/66 72/95/73 80/104/81 81/105/74
f 74/97/75 81/105/74 89/114/82 82/106/83
f 75/98/76 74/97/75 82/106/83 83/107/84
f 76/99/77 75/98/76 83/107/84 84/108/85
f 77/100/78 76/99/77 84/108/85 85/109/86
f 78/102/79 77/101/78 85/110/86 86/111/87
f 79/103/80 78/102/79 86/111/87 87/112/88
f 80/104/81 79/103/80 87/112/88 88/113/89
f 81/105/74 80/104/81 88/113/89 89/114/82
f 82/106/83 89/114/82 97/123/90 90/115/91
f 83/107/84 82/106/83 90/115/91 91/116/92
f 84/108/85 83/107/84 91/116/92 92/117/93
f 85/109/86 84/108/85 92/117/93 93/118/94
f 86/111/87 85/110/86 93/119/94 94/120/95
f 87/112/88 86/111/87 94/120/95 95/121/96
f 88/113/89 87/112/88 95/121/96 96/122/97
f 89/114/82 88/113/89 96/122/97 97/123/90
f 90/115/91 97/123/90 101/128/98
f 91/116/92 90/115/91 101/128/98 98/124/99
f 92/117/93 91/116/92 98/124/99
f 93/118/94 92/117/93 98/124/99 99/125/100
f 94/120/95 93/119/94 99/126/100
f 95/121/96 94/120/95 99/126/100 100/127/101
f 96/122/97 95/121/96 100/127/101
f 97/123/90 96/122/97 100/127/101 101/128/98
f 102/129/102 98/124/99 101/128/98 105/133/103
f 102/129/102 105/133/103 112/142/104 106/134/105
f 103/130/106 99/125/100 98/124/99 102/129/102
f 103/130/106 102/129/102 106/134/105 108/136/107
f 104/132/108 100/127/101 99/126/100 103/131/106
f 104/132/108 103/131/106 108/138/107 110/140/109
f 105/133/103 101/128/98 100/127/101 104/132/108
f 105/133/103 104/132/108 110/140/109 112/142/104
f 106/134/105 112/142/104 113/143/110 107/135/111
f 108/136/107 106/134/105 107/135/111 109/137/112
f 110/140/109 108/138/107 109/139/112 111/141/113
f 112/142/104 110/140/109 111/141/113 113/143/110
f 107/135/111 113/143/110 117/148/114 114/144/115
f 109/137/112 107/135/111 114/144/115 115/145/116
f 111/141/113 109/139/112 115/146/116 116/147/117
f 113/143/110 111/141/113 116/147/117 117/148/114
f 118/149/118 114/144/115 117/148/114
f 118/149/118 115/145/116 114/144/115
f 118/149/118 116/147/117 115/146/116
f 118/149/118 117/148/114 116/147/117
f 26/150/26 25/151/25 120/154/119 119/152/120
f 120/154/119 25/151/25 27/153/27
f 120/154/119 27/153/27 28/155/28 121/157/121
f 121/157/121 28/155/28 29/156/29
f 121/159/121 29/158/29 30/160/30 122/162/122
f 122/162/122 30/160/30 31/161/31
f 122/162/122 31/161/31 32/163/32 119/152/120
f 119/152/120 32/163/32 26/150/26
f 123/164/123 119/152/120 120/154/119 125/166/124
f 123/164/123 125/166/124 126/167/125 124/165/126
f 125/166/124 120/154/119 121/157/121 127/168/127
f 125/166/124 127/168/127 128/169/128 126/167/125
f 127/170/127 121/159/121 122/162/122 129/172/129
f 127/170/127 129/172/129 130/173/130 128/171/128
f 129/172/129 122/162/122 119/152/120 123/164/123
f 129/172/129 123/164/123 124/165/126 130/173/130
f 131/174/131 124/165/126 126/167/125 133/176/132
f 131/174/131 133/176/132 134/177/133 132/175/134
f 133/176/132 126/167/125 128/169/128 135/178/135
f 133/176/132 135/178/135 136/179/136 134/177/133
f 135/180/135 128/171/128 130/173/130 137/182/137
f 135/180/135 137/182/137 138/183/138 136/181/136
f 137/182/137 130/173/130 124/165/126 131/174/131
f 137/182/137 131/174/131 132/175/134 138/183/138
f 139/184/139 132/175/134 134/177/133 141/186/140
f 139/184/139 141/186/140 142/187/141 140/185/142
f 141/186/140 134/177/133 136/179/136 143/188/143
f 141/186/140 143/188/143 144/189/144 142/187/141
f 143/190/143 136/181/136 138/183/138 145/192/145
f 143/190/143 145/192/145 146/193/146 144/191/144
f 145/192/145 138/183/138 132/175/134 139/184/139
f 145/192/145 139/184/139 140/185/142 146/193/146
f 140/185/142 142/187/141 34/38/36 41/51/35
f 34/38/36 142/187/141 144/189/144 37/43/39
f 37/46/39 144/191/144 146/193/146 39/48/41
f 39/48/41 146/193/146 140/185/142 41/51/35
