# This file uses centimeters as units for non-parametric coordinates.

mtllib Pilar002.mtl
g default
v 0.250000 1.750000 0.250000
v -0.250000 1.750000 0.250000
v -0.250000 1.750000 -0.250000
v 0.250000 1.750000 -0.250000
v 0.500000 2.000000 0.500000
v -0.500000 2.000000 0.500000
v 0.500000 2.000000 -0.500000
v -0.500000 2.000000 -0.500000
v 0.500000 1.750000 0.500000
v -0.500000 1.750000 0.500000
v 0.500000 1.750000 -0.500000
v -0.500000 1.750000 -0.500000
v 0.250000 0.250000 0.250000
v -0.250000 0.250000 0.250000
v -0.250000 0.250000 -0.250000
v 0.250000 0.250000 -0.250000
v 0.500000 0.000000 0.500000
v -0.500000 0.000000 0.500000
v 0.500000 0.000000 -0.500000
v -0.500000 0.000000 -0.500000
v 0.500000 0.250000 0.500000
v -0.500000 0.250000 0.500000
v 0.500000 0.250000 -0.500000
v -0.500000 0.250000 -0.500000
vt 0.131151 0.389586
vt 0.001953 0.389586
vt 0.001953 0.001992
vt 0.131151 0.001992
vt 0.266977 0.389586
vt 0.137779 0.389586
vt 0.137779 0.001992
vt 0.266977 0.001992
vt 0.273414 0.001992
vt 0.402612 0.001992
vt 0.402612 0.389586
vt 0.273414 0.389586
vt 0.538248 0.389586
vt 0.409050 0.389586
vt 0.409050 0.001992
vt 0.538248 0.001992
vt 0.803081 0.260388
vt 0.544685 0.260388
vt 0.544685 0.001992
vt 0.803081 0.001992
vt 0.978244 0.522697
vt 0.719848 0.522697
vt 0.784447 0.458098
vt 0.913645 0.458098
vt 0.978244 0.264301
vt 0.913645 0.328900
vt 0.719848 0.264301
vt 0.784447 0.328900
vt 0.713834 0.264301
vt 0.713834 0.522697
vt 0.649235 0.522697
vt 0.649235 0.264301
vt 0.643221 0.264301
vt 0.643221 0.522697
vt 0.578622 0.522697
vt 0.578622 0.264301
vt 0.572608 0.393499
vt 0.572608 0.651895
vt 0.508009 0.651895
vt 0.508009 0.393499
vt 0.437396 0.651895
vt 0.437396 0.393499
vt 0.501996 0.393499
vt 0.501996 0.651895
vt 0.431383 0.651895
vt 0.172986 0.651895
vt 0.172986 0.393499
vt 0.431383 0.393499
vt 0.195750 0.720407
vt 0.066552 0.720407
vt 0.001953 0.655808
vt 0.260349 0.655808
vt 0.195750 0.849605
vt 0.260349 0.914204
vt 0.066552 0.849605
vt 0.001953 0.914204
vt 0.332282 0.655808
vt 0.332282 0.914204
vt 0.267683 0.914204
vt 0.267683 0.655808
vt 0.402966 0.655808
vt 0.402966 0.914204
vt 0.338367 0.914204
vt 0.338367 0.655808
vt 0.473649 0.655807
vt 0.473649 0.914204
vt 0.409050 0.914204
vt 0.409050 0.655807
vt 0.479733 0.914204
vt 0.479733 0.655807
vt 0.544332 0.655807
vt 0.544332 0.914204
vn 0.000000 0.000000 1.000000
vn 0.000000 0.000000 1.000000
vn 0.000000 0.000000 1.000000
vn 0.000000 0.000000 1.000000
vn -1.000000 0.000000 0.000000
vn -1.000000 0.000000 0.000000
vn -1.000000 0.000000 0.000000
vn -1.000000 0.000000 0.000000
vn 0.000000 0.000000 -1.000000
vn 0.000000 0.000000 -1.000000
vn 0.000000 0.000000 -1.000000
vn 0.000000 0.000000 -1.000000
vn 1.000000 0.000000 0.000000
vn 1.000000 0.000000 0.000000
vn 1.000000 0.000000 0.000000
vn 1.000000 0.000000 0.000000
vn 0.000000 1.000000 0.000000
vn 0.000000 1.000000 0.000000
vn 0.000000 1.000000 0.000000
vn 0.000000 1.000000 0.000000
vn 0.000000 -1.000000 0.000000
vn 0.000000 -1.000000 0.000000
vn 0.000000 -1.000000 0.000000
vn 0.000000 -1.000000 0.000000
vn 0.000000 -1.000000 0.000000
vn 0.000000 -1.000000 0.000000
vn 0.000000 -1.000000 0.000000
vn 0.000000 -1.000000 0.000000
vn 0.000000 -1.000000 0.000000
vn 0.000000 -1.000000 0.000000
vn 0.000000 -1.000000 0.000000
vn 0.000000 -1.000000 0.000000
vn 0.000000 -1.000000 0.000000
vn 0.000000 -1.000000 0.000000
vn 0.000000 -1.000000 0.000000
vn 0.000000 -1.000000 0.000000
vn 0.000000 0.000000 1.000000
vn 0.000000 0.000000 1.000000
vn 0.000000 0.000000 1.000000
vn 0.000000 0.000000 1.000000
vn 1.000000 0.000000 0.000000
vn 1.000000 0.000000 0.000000
vn 1.000000 0.000000 0.000000
vn 1.000000 0.000000 0.000000
vn -1.000000 0.000000 0.000000
vn -1.000000 0.000000 0.000000
vn -1.000000 0.000000 0.000000
vn -1.000000 0.000000 0.000000
vn 0.000000 0.000000 -1.000000
vn 0.000000 0.000000 -1.000000
vn 0.000000 0.000000 -1.000000
vn 0.000000 0.000000 -1.000000
vn 0.000000 -1.000000 0.000000
vn 0.000000 -1.000000 0.000000
vn 0.000000 -1.000000 0.000000
vn 0.000000 -1.000000 0.000000
vn 0.000000 1.000000 0.000000
vn 0.000000 1.000000 0.000000
vn 0.000000 1.000000 0.000000
vn 0.000000 1.000000 0.000000
vn 0.000000 1.000000 0.000000
vn 0.000000 1.000000 0.000000
vn 0.000000 1.000000 0.000000
vn 0.000000 1.000000 0.000000
vn 0.000000 1.000000 0.000000
vn 0.000000 1.000000 0.000000
vn 0.000000 1.000000 0.000000
vn 0.000000 1.000000 0.000000
vn 0.000000 1.000000 0.000000
vn 0.000000 1.000000 0.000000
vn 0.000000 1.000000 0.000000
vn 0.000000 1.000000 0.000000
vn 0.000000 0.000000 1.000000
vn 0.000000 0.000000 1.000000
vn 0.000000 0.000000 1.000000
vn 0.000000 0.000000 1.000000
vn 1.000000 0.000000 0.000000
vn 1.000000 0.000000 0.000000
vn 1.000000 0.000000 0.000000
vn 1.000000 0.000000 0.000000
vn -1.000000 0.000000 0.000000
vn -1.000000 0.000000 0.000000
vn -1.000000 0.000000 0.000000
vn -1.000000 0.000000 0.000000
vn 0.000000 0.000000 -1.000000
vn 0.000000 0.000000 -1.000000
vn 0.000000 0.000000 -1.000000
vn 0.000000 0.000000 -1.000000
s off
g polySurface1
usemtl initialShadingGroup
f 1/1/1 2/2/2 14/3/3 13/4/4
f 2/5/5 3/6/6 15/7/7 14/8/8
f 3/9/9 4/10/10 16/11/11 15/12/12
f 4/13/13 1/14/14 13/15/15 16/16/16
f 7/17/17 8/18/18 6/19/19 5/20/20
f 9/21/21 10/22/22 2/23/23 1/24/24
f 11/25/25 9/21/26 1/24/27 4/26/28
f 10/22/29 12/27/30 3/28/31 2/23/32
f 12/27/33 11/25/34 4/26/35 3/28/36
f 5/29/37 6/30/38 10/31/39 9/32/40
f 7/33/41 5/34/42 9/35/43 11/36/44
f 6/37/45 8/38/46 12/39/47 10/40/48
f 8/41/49 7/42/50 11/43/51 12/44/52
f 17/45/53 18/46/54 20/47/55 19/48/56
f 13/49/57 14/50/58 22/51/59 21/52/60
f 16/53/61 13/49/62 21/52/63 23/54/64
f 14/50/65 15/55/66 24/56/67 22/51/68
f 15/55/69 16/53/70 23/54/71 24/56/72
f 21/57/73 22/58/74 18/59/75 17/60/76
f 23/61/77 21/62/78 17/63/79 19/64/80
f 22/65/81 24/66/82 20/67/83 18/68/84
f 24/69/85 23/70/86 19/71/87 20/72/88
