# This file uses centimeters as units for non-parametric coordinates.

mtllib FloorTorch.mtl
g default
v 0.448088 -0.000000 -0.140190
v 0.381487 -0.000000 -0.270900
v 0.277756 -0.000000 -0.374632
v 0.147046 -0.000000 -0.441231
v 0.002153 -0.000000 -0.464180
v -0.142740 -0.000000 -0.441231
v -0.273449 -0.000000 -0.374632
v -0.377181 -0.000000 -0.270900
v -0.443781 -0.000000 -0.140190
v -0.466730 -0.000000 0.004703
v -0.443781 -0.000000 0.149595
v -0.377181 -0.000000 0.280305
v -0.273449 -0.000000 0.384037
v -0.142739 -0.000000 0.450637
v 0.002153 -0.000000 0.473585
v 0.147046 -0.000000 0.450637
v 0.277756 -0.000000 0.384037
v 0.381487 -0.000000 0.280305
v 0.448087 -0.000000 0.149595
v 0.471036 -0.000000 0.004703
v 0.578408 0.759734 -0.182534
v 0.492345 0.759734 -0.351443
v 0.358299 0.759734 -0.485489
v 0.189390 0.759734 -0.571552
v 0.002153 0.759734 -0.601208
v -0.185083 0.759734 -0.571552
v -0.353992 0.759734 -0.485489
v -0.488038 0.759734 -0.351442
v -0.574102 0.759734 -0.182534
v -0.603757 0.759734 0.004703
v -0.574102 0.759734 0.191939
v -0.488038 0.759734 0.360848
v -0.353992 0.759734 0.494894
v -0.185083 0.759734 0.580958
v 0.002153 0.759734 0.610613
v 0.189390 0.759734 0.580958
v 0.358298 0.759734 0.494894
v 0.492345 0.759734 0.360848
v 0.578408 0.759734 0.191939
v 0.608063 0.759734 0.004703
v 0.002153 0.759734 0.004703
v 0.002153 -0.000000 0.004703
vt 0.087953 0.726544
vt 0.104503 0.689207
vt 0.303340 0.770826
vt 0.281938 0.819063
vt 0.118955 0.651009
vt 0.322018 0.721463
vt 0.131263 0.612068
vt 0.337907 0.671133
vt 0.141393 0.572504
vt 0.350979 0.620008
vt 0.149312 0.532442
vt 0.361215 0.568240
vt 0.154996 0.492001
vt 0.368573 0.515971
vt 0.158422 0.451306
vt 0.373009 0.463369
vt 0.159582 0.410477
vt 0.374506 0.410615
vt 0.158474 0.369649
vt 0.373070 0.357874
vt 0.155104 0.328947
vt 0.368719 0.305293
vt 0.149485 0.288496
vt 0.361457 0.253016
vt 0.141622 0.248424
vt 0.351293 0.201213
vt 0.131545 0.208847
vt 0.338265 0.150060
vt 0.119292 0.169891
vt 0.322426 0.099720
vt 0.104894 0.131672
vt 0.303831 0.050340
vt 0.088397 0.094309
vt 0.282523 0.002060
vt 0.170717 0.998008
vt 0.001879 0.865025
vt 0.026254 0.832250
vt 0.202208 0.955660
vt 0.048771 0.798173
vt 0.231300 0.911632
vt 0.069358 0.762904
vt 0.257906 0.866051
vt 0.770412 0.505557
vt 0.823308 0.342758
vt 0.871027 0.367072
vt 0.908897 0.404941
vt 0.933210 0.452660
vt 0.941589 0.505556
vt 0.933210 0.558453
vt 0.908897 0.606172
vt 0.871027 0.644041
vt 0.823309 0.668355
vt 0.770412 0.676733
vt 0.717515 0.668355
vt 0.669797 0.644041
vt 0.631927 0.606172
vt 0.607614 0.558452
vt 0.599235 0.505557
vt 0.607613 0.452660
vt 0.631927 0.404941
vt 0.669796 0.367072
vt 0.717515 0.342758
vt 0.770412 0.334380
vt 0.491896 0.829419
vt 0.475025 0.792955
vt 0.599062 0.757346
vt 0.519632 0.859101
vt 0.555201 0.878678
vt 0.595057 0.886224
vt 0.635189 0.881058
vt 0.671697 0.863739
vt 0.701012 0.836044
vt 0.720328 0.800674
vt 0.727756 0.760999
vt 0.722577 0.721018
vt 0.705274 0.684579
vt 0.677647 0.655316
vt 0.642305 0.636013
vt 0.602776 0.628562
vt 0.562816 0.633720
vt 0.526427 0.650952
vt 0.497158 0.678508
vt 0.477796 0.713711
vt 0.470177 0.753104
vn 0.935955 -0.177499 -0.304109
vn 0.796171 -0.177499 -0.578452
vn 0.796171 -0.177499 -0.578452
vn 0.935955 -0.177499 -0.304109
vn 0.578452 -0.177499 -0.796171
vn 0.578452 -0.177499 -0.796171
vn 0.304110 -0.177499 -0.935955
vn 0.304110 -0.177499 -0.935955
vn -0.000000 -0.177499 -0.984121
vn -0.000000 -0.177499 -0.984121
vn -0.304110 -0.177499 -0.935955
vn -0.304110 -0.177499 -0.935955
vn -0.578452 -0.177499 -0.796170
vn -0.578452 -0.177498 -0.796171
vn -0.796171 -0.177499 -0.578452
vn -0.796171 -0.177499 -0.578452
vn -0.935955 -0.177499 -0.304110
vn -0.935955 -0.177499 -0.304110
vn -0.984121 -0.177499 0.000000
vn -0.984121 -0.177499 0.000000
vn -0.935955 -0.177499 0.304110
vn -0.935955 -0.177499 0.304110
vn -0.796171 -0.177499 0.578452
vn -0.796171 -0.177499 0.578452
vn -0.578452 -0.177499 0.796171
vn -0.578452 -0.177499 0.796171
vn -0.304110 -0.177499 0.935955
vn -0.304110 -0.177499 0.935955
vn 0.000000 -0.177499 0.984121
vn 0.000000 -0.177499 0.984121
vn 0.304110 -0.177499 0.935955
vn 0.304110 -0.177499 0.935955
vn 0.446954 -0.175381 0.877197
vn 0.446954 -0.175381 0.877196
vn 0.696147 -0.175381 0.696147
vn 0.696147 -0.175381 0.696147
vn 0.796171 -0.177499 0.578452
vn 0.796171 -0.177499 0.578452
vn 0.935955 -0.177498 0.304110
vn 0.935955 -0.177498 0.304110
vn 0.984121 -0.177498 0.000001
vn 0.984121 -0.177498 0.000001
vn 0.000000 1.000000 0.000000
vn 0.000000 1.000000 0.000000
vn 0.000000 1.000000 -0.000000
vn 0.000000 1.000000 -0.000000
vn 0.000000 1.000000 0.000000
vn 0.000000 1.000000 0.000000
vn 0.000000 1.000000 0.000000
vn 0.000000 1.000000 0.000000
vn 0.000000 1.000000 0.000000
vn 0.000000 1.000000 0.000000
vn 0.000000 1.000000 0.000000
vn 0.000000 1.000000 -0.000000
vn 0.000000 1.000000 0.000000
vn 0.000000 1.000000 0.000000
vn 0.000000 1.000000 0.000000
vn 0.000000 1.000000 0.000000
vn 0.000000 1.000000 0.000000
vn 0.000000 1.000000 0.000000
vn 0.000000 1.000000 -0.000000
vn 0.000000 1.000000 -0.000000
vn 0.000000 1.000000 0.000000
vn 0.000000 -1.000000 0.000000
vn 0.000000 -1.000000 0.000000
vn 0.000000 -1.000000 0.000000
vn 0.000000 -1.000000 0.000000
vn 0.000000 -1.000000 0.000000
vn 0.000000 -1.000000 0.000000
vn 0.000000 -1.000000 0.000000
vn 0.000000 -1.000000 0.000000
vn 0.000000 -1.000000 0.000000
vn 0.000000 -1.000000 0.000000
vn 0.000000 -1.000000 0.000000
vn 0.000000 -1.000000 0.000000
vn 0.000000 -1.000000 0.000000
vn 0.000000 -1.000000 0.000000
vn 0.000000 -1.000000 0.000000
vn 0.000000 -1.000000 0.000000
vn 0.000000 -1.000000 0.000000
vn 0.000000 -1.000000 0.000000
vn 0.000000 -1.000000 0.000000
vn 0.000000 -1.000000 0.000000
vn 0.000000 -1.000000 0.000000
s 1
g FloorTorch
usemtl initialShadingGroup
f 1/1/1 2/2/2 22/3/3 21/4/4
f 2/2/2 3/5/5 23/6/6 22/3/3
f 3/5/5 4/7/7 24/8/8 23/6/6
f 4/7/7 5/9/9 25/10/10 24/8/8
f 5/9/9 6/11/11 26/12/12 25/10/10
f 6/11/11 7/13/13 27/14/14 26/12/12
f 7/13/13 8/15/15 28/16/16 27/14/14
f 8/15/15 9/17/17 29/18/18 28/16/16
f 9/17/17 10/19/19 30/20/20 29/18/18
f 10/19/19 11/21/21 31/22/22 30/20/20
f 11/21/21 12/23/23 32/24/24 31/22/22
f 12/23/23 13/25/25 33/26/26 32/24/24
f 13/25/25 14/27/27 34/28/28 33/26/26
f 14/27/27 15/29/29 35/30/30 34/28/28
f 15/29/29 16/31/31 36/32/32 35/30/30
f 16/31/31 17/33/33 37/34/34 36/32/32
f 37/35/35 17/36/36 18/37/37 38/38/38
f 18/37/37 19/39/39 39/40/40 38/38/38
f 19/39/39 20/41/41 40/42/42 39/40/40
f 20/41/41 1/1/1 21/4/4 40/42/42
s 3
f 41/43/43 21/44/44 22/45/45
f 41/43/43 22/45/45 23/46/46
f 41/43/43 23/46/46 24/47/47
f 41/43/43 24/47/47 25/48/48
f 41/43/43 25/48/48 26/49/49
f 41/43/43 26/49/49 27/50/50
f 41/43/43 27/50/50 28/51/51
f 41/43/43 28/51/51 29/52/52
f 41/43/43 29/52/52 30/53/53
f 41/43/43 30/53/53 31/54/54
f 32/55/55 41/43/43 31/54/54
f 41/43/43 32/55/55 33/56/56
f 41/43/43 33/56/56 34/57/57
f 41/43/43 34/57/57 35/58/58
f 41/43/43 35/58/58 36/59/59
f 41/43/43 36/59/59 37/60/60
f 41/43/43 37/60/60 38/61/61
f 41/43/43 38/61/61 39/62/62
f 41/43/43 39/62/62 40/63/63
f 41/43/43 40/63/63 21/44/44
s 4
f 2/64/64 1/65/65 42/66/66
f 3/67/67 2/64/64 42/66/66
f 4/68/68 3/67/67 42/66/66
f 5/69/69 4/68/68 42/66/66
f 6/70/70 5/69/69 42/66/66
f 7/71/71 6/70/70 42/66/66
f 8/72/72 7/71/71 42/66/66
f 9/73/73 8/72/72 42/66/66
f 10/74/74 9/73/73 42/66/66
f 11/75/75 10/74/74 42/66/66
f 12/76/76 11/75/75 42/66/66
f 13/77/77 12/76/76 42/66/66
f 14/78/78 13/77/77 42/66/66
f 15/79/79 14/78/78 42/66/66
f 16/80/80 15/79/79 42/66/66
f 17/81/81 16/80/80 42/66/66
f 18/82/82 17/81/81 42/66/66
f 19/83/83 18/82/82 42/66/66
f 20/84/84 19/83/83 42/66/66
f 42/66/66 1/65/65 20/84/84
